<svg width="229" height="248" viewBox="0 0 229 248" fill="none" xmlns="http://www.w3.org/2000/svg">
<g filter="url(#filter0_d)">
<circle cx="149" cy="57" r="43" fill="#2E3138" stroke="#4495F2" stroke-width="4"/>
<path fill-rule="evenodd" clip-rule="evenodd" d="M162.596 52.4399L158.561 48.4052L140.406 66.5611L144.44 70.5958L162.596 52.4399ZM144.44 62.5265L139.035 57.1214L135 61.156L140.405 66.5611L144.44 62.5265Z" fill="#4495F2"/>
<path fill-rule="evenodd" clip-rule="evenodd" d="M162.596 52.4399L158.561 48.4052L140.406 66.5611L144.44 70.5958L162.596 52.4399ZM144.44 62.5265L139.035 57.1214L135 61.156L140.405 66.5611L144.44 62.5265Z" fill="#4495F2"/>
</g>
<g filter="url(#filter1_d)">
<circle cx="164" cy="125" r="43" fill="#2E3138" stroke="#A144F2" stroke-width="4"/>
<path fill-rule="evenodd" clip-rule="evenodd" d="M176.082 120.663L172.624 117.205L157.062 132.767L160.52 136.225L176.082 120.663ZM160.52 129.308L155.887 124.675L152.428 128.134L157.061 132.767L160.52 129.308Z" fill="#4495F2"/>
<path fill-rule="evenodd" clip-rule="evenodd" d="M176.082 120.663L172.624 117.205L157.062 132.767L160.52 136.225L176.082 120.663ZM160.52 129.308L155.887 124.675L152.428 128.134L157.061 132.767L160.52 129.308Z" fill="#A144F2"/>
</g>
<g filter="url(#filter2_d)">
<circle cx="135" cy="183" r="43" fill="#2E3138" stroke="#FCE21B" stroke-width="4"/>
<path fill-rule="evenodd" clip-rule="evenodd" d="M148.596 178.44L144.561 174.405L126.406 192.561L130.44 196.596L148.596 178.44ZM130.44 188.526L125.035 183.121L121 187.156L126.405 192.561L130.44 188.526Z" fill="#4495F2"/>
<path fill-rule="evenodd" clip-rule="evenodd" d="M148.596 178.44L144.561 174.405L126.406 192.561L130.44 196.596L148.596 178.44ZM130.44 188.526L125.035 183.121L121 187.156L126.405 192.561L130.44 188.526Z" fill="#FCE21B"/>
</g>
<g filter="url(#filter3_d)">
<path fill-rule="evenodd" clip-rule="evenodd" d="M80.8883 176.437C43.8235 176.437 13.7766 146.39 13.7766 109.325C13.7766 72.2606 43.8235 42.2136 80.8883 42.2136C117.953 42.2136 148 72.2606 148 109.325C148 146.39 117.953 176.437 80.8883 176.437Z" fill="#2E3138"/>
</g>
<mask id="mask0" mask-type="alpha" maskUnits="userSpaceOnUse" x="0" y="10" width="148" height="167">
<path fill-rule="evenodd" clip-rule="evenodd" d="M80.8883 176.437C43.8235 176.437 13.7766 146.39 13.7766 109.325C-31.8593 50.267 47.4028 10 84.4676 10C121.532 10 148 72.2605 148 109.325C148 146.39 117.953 176.437 80.8883 176.437Z" fill="white"/>
</mask>
<g mask="url(#mask0)">
<path fill-rule="evenodd" clip-rule="evenodd" d="M75.2599 53.0972C71.3969 55.4257 67.6013 56.5507 65.8196 56.0914C61.3519 54.9398 60.9411 38.5956 64.398 32.1522C67.8549 25.7088 85.6262 22.9004 86.5219 35.6668C86.8328 40.0976 84.9723 44.0518 82.2235 47.2784L87.1523 70.2514H72.8352L75.2599 53.0972Z" fill="#ECB889"/>
<path fill-rule="evenodd" clip-rule="evenodd" d="M70.0527 25.1344C72.0091 24.5379 74.849 24.3356 76.0437 24.4724C75.3641 22.8442 75.0944 21.0302 75.3143 19.2639C75.5279 17.5476 76.2948 16.0862 77.0041 14.5549C77.3311 13.8491 77.7016 13.1471 78.254 12.6072C78.8167 12.0571 79.529 11.6941 80.276 11.5208C81.0403 11.3435 81.8396 11.3583 82.6052 11.5192C82.9439 11.5904 83.2477 11.7452 83.5799 11.8313C83.92 11.9195 84.085 11.7066 84.3319 11.4927C84.9269 10.9772 85.7991 10.7227 86.5518 10.6316C87.3963 10.5295 88.2725 10.6568 89.0779 10.9345C89.8619 11.2047 90.615 11.6436 91.1818 12.2829C91.4341 12.5675 91.6632 12.8914 91.8121 13.2491C91.8731 13.3958 91.8832 13.4828 92.0297 13.5365C92.1651 13.5863 92.3236 13.5877 92.4634 13.6351C93.815 14.0929 94.9707 15.1373 95.6 16.4782C95.9671 17.2606 96.141 18.6379 96.0934 20.1817C96.0457 21.7255 94.6518 25.7537 93.348 27.223C92.1842 28.5345 90.4736 29.3999 88.8228 29.7788C89.9186 31.0312 90.648 32.5963 91.1873 34.1881C91.7732 35.9171 92.1358 37.7136 92.2697 39.5441C92.3969 41.2833 92.4087 43.1225 92.001 44.8245C91.6195 46.4162 90.8039 47.722 89.4422 48.5504C88.8185 48.9298 88.1474 49.2149 87.4724 49.4754C86.8072 49.7322 86.14 49.9818 85.4432 50.1259C84.1244 50.3984 82.6049 50.3517 81.5891 49.302C81.223 48.9236 80.8203 48.4481 80.5532 47.9858C80.4572 47.8196 80.3993 47.7108 80.5159 47.5483C80.6557 47.3537 80.8818 47.2046 81.0614 47.0523C82.0854 46.1843 82.7193 45.0255 82.8791 43.6483C83.0412 42.251 82.6658 40.4474 81.3073 39.8376C79.6303 39.0848 77.7835 39.9489 76.293 40.7543C75.6596 38.5186 74.3589 36.5056 72.3197 35.48C70.0636 34.3455 67.4749 34.2127 65.1564 33.2392C64.5523 32.9856 63.937 32.6976 63.4922 32.1808C63.3063 31.9647 63.0882 31.6845 63.014 31.3988C62.9165 31.0236 63.1586 30.7089 63.3455 30.4163C64.3369 28.8651 68.0964 25.731 70.0527 25.1344Z" fill="#A144F2"/>
<path fill-rule="evenodd" clip-rule="evenodd" d="M90.7314 119.765L46.4041 193.872L13.1713 256.524H6.01325L61.6952 119.765L90.7314 119.765Z" fill="#ECB889"/>
<path fill-rule="evenodd" clip-rule="evenodd" d="M22.4012 246.491L8.59699 242.316C8.59699 242.316 17.669 215.195 30.835 182.626C44.001 150.056 59.1146 119.765 59.1146 119.765H98.1025C98.1025 119.765 81.2995 158.082 62.4755 189.397C43.6516 220.712 22.4012 246.491 22.4012 246.491Z" fill="#2770C4"/>
<path fill-rule="evenodd" clip-rule="evenodd" d="M93.6448 119.765C97.8284 145.807 105.898 179.078 106.659 180.105C107.167 180.789 125.443 186.914 161.488 198.478L159.942 204.79C116.958 198.588 94.3096 193.776 91.9958 190.355C88.5251 185.223 71.1955 144.679 64.4835 119.765H93.6448Z" fill="#ECB889"/>
<path fill-rule="evenodd" clip-rule="evenodd" d="M148.818 193.021L146.094 203.187C113.945 206.007 94.2465 203.97 86.9986 197.075C79.7507 190.181 71.4903 164.411 62.2173 119.765H99.3946C105.27 156.324 108.554 175.37 109.248 176.905C109.942 178.44 123.132 183.812 148.818 193.021Z" fill="#4390EA"/>
<path d="M9.60079 72.3393L14.9697 86.0599L6.61805 83.0772L0.354294 68.4618L9.60079 72.3393Z" fill="#FCE21B"/>
<path fill-rule="evenodd" clip-rule="evenodd" d="M50.8174 72.2589L71.5234 83.5995L63.877 91.8065L48.8315 78.0307C40.9057 75.8464 37.2811 74.2485 37.9577 73.2369C38.5283 72.3841 39.4485 72.4137 40.2961 72.441C40.9564 72.4622 41.5726 72.482 41.9452 72.0822C42.796 71.169 41.1727 67.976 39.5026 65.0118C37.8326 62.0476 39.6184 62.3057 40.6396 62.732C43.9815 64.9943 47.3741 68.17 50.8174 72.2589ZM18.9985 87.172L28.0938 92.1685L27.5758 101.296C27.5758 101.296 21.6851 97.0442 16.6171 95.6312C10.1552 93.8294 7.54079 92.4535 4.38312 88.4301C2.69362 86.2774 1.2597 81.9498 2.86784 80.5404C3.48471 79.9998 5.7832 81.2771 8.12842 82.5802C9.91576 83.5734 11.7302 84.5817 12.8481 84.8118C14.353 85.1217 14.1768 83.1711 14.036 81.6124C13.935 80.4939 13.8522 79.5772 14.4218 79.8423C17.0842 79.8879 18.9985 87.172 18.9985 87.172Z" fill="#ECB889"/>
<path fill-rule="evenodd" clip-rule="evenodd" d="M81.6074 81.0737C74.3548 80.9971 64.6835 79.4653 54.3641 72.915L50.3114 81.9526C57.4295 89.0167 67.4382 94.8208 76.1896 94.575C83.0862 94.3813 86.6109 86.0393 81.6074 81.0737Z" fill="#3733B9"/>
<path fill-rule="evenodd" clip-rule="evenodd" d="M90.1679 141.991C97.0628 141.092 103.398 140.266 107.153 141.006C111.365 127.325 107.867 118.711 104.638 110.76C102.692 105.967 100.844 101.415 100.84 96.1396C100.828 80.7758 88.4917 57.1273 86.6766 57.1273H86.1556H71.7712H70.1244C69.3843 66.6348 66.2259 76.9286 63.0472 87.2886C62.3048 89.708 61.5614 92.131 60.8474 94.5484C48.818 97.2789 22.1069 87.7741 22.1069 87.7741C22.1069 87.7741 15.3637 101.724 15.8725 107.665C31.42 115.787 44.7455 119.407 55.724 119.647C55.3751 126.161 56.168 132.359 58.8316 138.023C62.4005 145.612 77.2638 143.674 90.1679 141.991Z" fill="#4A44F2"/>
</g>
<defs>
<filter id="filter0_d" x="92" y="0" width="122" height="122" filterUnits="userSpaceOnUse" color-interpolation-filters="sRGB">
<feFlood flood-opacity="0" result="BackgroundImageFix"/>
<feColorMatrix in="SourceAlpha" type="matrix" values="0 0 0 0 0 0 0 0 0 0 0 0 0 0 0 0 0 0 127 0"/>
<feOffset dx="4" dy="4"/>
<feGaussianBlur stdDeviation="8"/>
<feColorMatrix type="matrix" values="0 0 0 0 0 0 0 0 0 0 0 0 0 0 0 0 0 0 0.6 0"/>
<feBlend mode="normal" in2="BackgroundImageFix" result="effect1_dropShadow"/>
<feBlend mode="normal" in="SourceGraphic" in2="effect1_dropShadow" result="shape"/>
</filter>
<filter id="filter1_d" x="107" y="68" width="122" height="122" filterUnits="userSpaceOnUse" color-interpolation-filters="sRGB">
<feFlood flood-opacity="0" result="BackgroundImageFix"/>
<feColorMatrix in="SourceAlpha" type="matrix" values="0 0 0 0 0 0 0 0 0 0 0 0 0 0 0 0 0 0 127 0"/>
<feOffset dx="4" dy="4"/>
<feGaussianBlur stdDeviation="8"/>
<feColorMatrix type="matrix" values="0 0 0 0 0 0 0 0 0 0 0 0 0 0 0 0 0 0 0.6 0"/>
<feBlend mode="normal" in2="BackgroundImageFix" result="effect1_dropShadow"/>
<feBlend mode="normal" in="SourceGraphic" in2="effect1_dropShadow" result="shape"/>
</filter>
<filter id="filter2_d" x="78" y="126" width="122" height="122" filterUnits="userSpaceOnUse" color-interpolation-filters="sRGB">
<feFlood flood-opacity="0" result="BackgroundImageFix"/>
<feColorMatrix in="SourceAlpha" type="matrix" values="0 0 0 0 0 0 0 0 0 0 0 0 0 0 0 0 0 0 127 0"/>
<feOffset dx="4" dy="4"/>
<feGaussianBlur stdDeviation="8"/>
<feColorMatrix type="matrix" values="0 0 0 0 0 0 0 0 0 0 0 0 0 0 0 0 0 0 0.6 0"/>
<feBlend mode="normal" in2="BackgroundImageFix" result="effect1_dropShadow"/>
<feBlend mode="normal" in="SourceGraphic" in2="effect1_dropShadow" result="shape"/>
</filter>
<filter id="filter3_d" x="1.77637" y="30.2136" width="166.223" height="166.223" filterUnits="userSpaceOnUse" color-interpolation-filters="sRGB">
<feFlood flood-opacity="0" result="BackgroundImageFix"/>
<feColorMatrix in="SourceAlpha" type="matrix" values="0 0 0 0 0 0 0 0 0 0 0 0 0 0 0 0 0 0 127 0"/>
<feOffset dx="4" dy="4"/>
<feGaussianBlur stdDeviation="8"/>
<feColorMatrix type="matrix" values="0 0 0 0 0.121569 0 0 0 0 0.141176 0 0 0 0 0.152941 0 0 0 1 0"/>
<feBlend mode="normal" in2="BackgroundImageFix" result="effect1_dropShadow"/>
<feBlend mode="normal" in="SourceGraphic" in2="effect1_dropShadow" result="shape"/>
</filter>
</defs>
</svg>